<svg width="32" height="28" viewBox="0 0 32 28" fill="none" xmlns="http://www.w3.org/2000/svg">
<g id="code-solid 1" clip-path="url(#clip0_22_154)">
<path id="Vector" d="M19.64 0.0656553C18.79 -0.202313 17.905 0.339093 17.66 1.26878L11.26 25.7688C11.015 26.6985 11.51 27.6664 12.36 27.9344C13.21 28.2024 14.095 27.661 14.34 26.7313L20.74 2.23128C20.985 1.30159 20.49 0.333624 19.64 0.0656553ZM23.67 6.63362C23.045 7.31722 23.045 8.42737 23.67 9.11097L28.135 14L23.665 18.8891C23.04 19.5727 23.04 20.6828 23.665 21.3664C24.29 22.05 25.305 22.05 25.93 21.3664L31.53 15.2414C32.155 14.5578 32.155 13.4477 31.53 12.7641L25.93 6.63909C25.305 5.9555 24.29 5.9555 23.665 6.63909L23.67 6.63362ZM8.335 6.63362C7.71 5.95003 6.695 5.95003 6.07 6.63362L0.470001 12.7586C-0.154999 13.4422 -0.154999 14.5524 0.470001 15.236L6.07 21.361C6.695 22.0446 7.71 22.0446 8.335 21.361C8.96 20.6774 8.96 19.5672 8.335 18.8836L3.865 14L8.335 9.11097C8.96 8.42737 8.96 7.31722 8.335 6.63362Z" fill="#730808"/>
</g>
<defs>
<clipPath id="clip0_22_154">
<rect width="32" height="28" fill="white"/>
</clipPath>
</defs>
</svg>
