<svg width="44" height="52" viewBox="0 0 44 52" fill="none" xmlns="http://www.w3.org/2000/svg">
<g id="Curriculo" clip-path="url(#clip0_1_47)">
<path id="Vector" d="M29.3333 0V13H44L29.3333 0ZM25.6667 13V0H5.5C2.4624 0 0 2.18258 0 4.875V47.125C0 49.8164 2.4624 52 5.5 52H38.5C41.5376 52 44 49.8174 44 47.125V16.25H29.4365C27.3052 16.25 25.6667 14.7977 25.6667 13ZM31.1667 42.25H12.8333C11.825 42.25 11 41.5187 11 40.625C11 39.7313 11.825 39 12.8333 39H31.1667C32.1791 39 33 39.7274 33 40.625C33 41.5187 32.175 42.25 31.1667 42.25ZM31.1667 35.75H12.8333C11.825 35.75 11 35.0187 11 34.125C11 33.2313 11.825 32.5 12.8333 32.5H31.1667C32.1791 32.5 33 33.2274 33 34.125C33 35.0187 32.175 35.75 31.1667 35.75ZM33 27.625C33 28.5187 32.175 29.25 31.1667 29.25H12.8333C11.825 29.25 11 28.5187 11 27.625C11 26.7313 11.825 26 12.8333 26H31.1667C32.175 26 33 26.7313 33 27.625Z" fill="#480202"/>
</g>
<defs>
<clipPath id="clip0_1_47">
<rect width="44" height="52" fill="white"/>
</clipPath>
</defs>
</svg>
