<svg width="60" height="60" viewBox="0 0 60 60" fill="none" xmlns="http://www.w3.org/2000/svg">
<g id="git 1" clip-path="url(#clip0_21_120)">
<path id="Vector" d="M58.865 27.3249L32.6675 1.12989C31.1575 -0.377607 28.7125 -0.377607 27.1975 1.12989L21.77 6.56739L28.67 13.4674C30.2825 12.9299 32.1175 13.2924 33.3925 14.5699C34.6825 15.8574 35.0375 17.7149 34.4875 19.3199L41.1325 25.9699C42.745 25.4124 44.6 25.7749 45.8825 27.0574C47.685 28.8574 47.685 31.7674 45.8825 33.5674C44.085 35.3649 41.18 35.3649 39.3825 33.5674C38.035 32.2149 37.6975 30.2249 38.3725 28.5774L32.15 22.3874V38.6999C32.59 38.9149 33.005 39.2074 33.37 39.5699C35.1525 41.3724 35.1525 44.2774 33.37 46.0699C31.5725 47.8724 28.6475 47.8724 26.8475 46.0699C25.05 44.2724 25.05 41.3724 26.8475 39.5749C27.3025 39.1249 27.815 38.7849 28.36 38.5599V22.0874C27.8175 21.8599 27.3 21.5324 26.86 21.0849C25.4975 19.7224 25.17 17.7299 25.87 16.0624L19.09 9.24989L1.125 27.2024C-0.375 28.7149 -0.375 31.1624 1.125 32.6749L27.325 58.8674C28.835 60.3774 31.28 60.3774 32.79 58.8674L58.865 32.7924C60.3775 31.2849 60.3775 28.8374 58.865 27.3249Z" fill="#730808"/>
</g>
<defs>
<clipPath id="clip0_21_120">
<rect width="60" height="60" fill="white"/>
</clipPath>
</defs>
</svg>
