<svg width="52" height="52" viewBox="0 0 52 52" fill="none" xmlns="http://www.w3.org/2000/svg">
<g id="GitHub" clip-path="url(#clip0_1_45)">
<path id="Vector" d="M26 0.643494C11.635 0.643494 0 12.285 0 26.6435C0 38.1333 7.449 47.8768 17.7775 51.311C19.0775 51.5558 19.5542 50.752 19.5542 50.0608C19.5542 49.4433 19.5325 47.8075 19.5217 45.6408C12.2893 47.2095 10.764 42.1525 10.764 42.1525C9.581 39.1517 7.8715 38.35 7.8715 38.35C5.51633 36.738 8.0535 36.7705 8.0535 36.7705C10.6643 36.9525 12.0358 39.4485 12.0358 39.4485C14.3542 43.4243 18.122 42.276 19.6083 41.6108C19.8423 39.9295 20.5118 38.7833 21.255 38.1333C15.4808 37.4833 9.412 35.2473 9.412 25.285C9.412 22.4467 10.4195 20.1283 12.0878 18.3083C11.7953 17.6518 10.9178 15.0085 12.3153 11.427C12.3153 11.427 14.4928 10.7293 19.4653 14.092C21.5453 13.5135 23.7553 13.2275 25.9653 13.2145C28.1753 13.2275 30.3853 13.5135 32.4653 14.092C37.4053 10.7293 39.5828 11.427 39.5828 11.427C40.9803 15.0085 40.1028 17.6518 39.8428 18.3083C41.5003 20.1283 42.5078 22.4467 42.5078 25.285C42.5078 35.2733 36.4303 37.4725 30.6453 38.1117C31.5553 38.8917 32.4003 40.4863 32.4003 42.9217C32.4003 46.4013 32.3678 49.1963 32.3678 50.0413C32.3678 50.7238 32.8228 51.5363 34.1553 51.2763C44.5575 47.866 52 38.116 52 26.6435C52 12.285 40.3585 0.643494 26 0.643494Z" fill="#480202"/>
</g>
<defs>
<clipPath id="clip0_1_45">
<rect width="52" height="52" fill="white"/>
</clipPath>
</defs>
</svg>
