<svg width="52" height="52" viewBox="0 0 52 52" fill="none" xmlns="http://www.w3.org/2000/svg">
<g id="LinkedIn" clip-path="url(#clip0_1_43)">
<path id="Vector" d="M44.3018 44.3127H36.6015V32.2465C36.6015 29.3692 36.543 25.6663 32.5888 25.6663C28.574 25.6663 27.9608 28.7972 27.9608 32.0342V44.3127H20.2605V19.5H27.6575V22.8822H27.7572C28.7907 20.9322 31.304 18.8738 35.0588 18.8738C42.861 18.8738 44.304 24.0088 44.304 30.693L44.3018 44.3127ZM11.5635 16.1048C9.08483 16.1048 7.09367 14.0985 7.09367 11.6307C7.09367 9.165 9.087 7.16083 11.5635 7.16083C14.0335 7.16083 16.0355 9.165 16.0355 11.6307C16.0355 14.0985 14.0313 16.1048 11.5635 16.1048ZM15.4245 44.3127H7.7025V19.5H15.4245V44.3127ZM48.1542 0H3.83717C1.716 0 0 1.677 0 3.74617V48.2538C0 50.3252 1.716 52 3.83717 52H48.1477C50.2667 52 52 50.3252 52 48.2538V3.74617C52 1.677 50.2667 0 48.1477 0H48.1542Z" fill="#480202"/>
</g>
<defs>
<clipPath id="clip0_1_43">
<rect width="52" height="52" fill="white"/>
</clipPath>
</defs>
</svg>
