<svg width="60" height="60" viewBox="0 0 60 60" fill="none" xmlns="http://www.w3.org/2000/svg">
<g id="noun-three-dots-384290 1" clip-path="url(#clip0_21_122)">
<g id="Group">
<path id="Vector" d="M7.42722 22.5757C3.3224 22.5757 -1.52588e-05 25.8962 -1.52588e-05 29.9992C-1.52588e-05 34.1021 3.31866 37.4245 7.42722 37.4245C11.5246 37.4245 14.8507 34.1077 14.8507 29.9992C14.8507 25.8962 11.5246 22.5757 7.42722 22.5757ZM30.3846 22.5757C26.2892 22.5757 22.9574 25.8944 22.9574 29.9973C22.9574 34.1002 26.2854 37.4227 30.3846 37.4227C34.4838 37.4227 37.8156 34.1059 37.8156 29.9973C37.8119 25.8962 34.4838 22.5757 30.3846 22.5757ZM52.5784 22.5757C48.4754 22.5757 45.1493 25.8962 45.1493 30.001C45.1493 34.1003 48.4698 37.4227 52.5784 37.4227C56.6738 37.4227 60 34.1059 60 30.001C60 25.8962 56.6738 22.5757 52.5784 22.5757Z" fill="#730808"/>
</g>
</g>
<defs>
<clipPath id="clip0_21_122">
<rect width="60" height="60" fill="white"/>
</clipPath>
</defs>
</svg>
